ffmpeg started on 2016-12-06 at 23:38:41
Report written to "Output/x264/results/ffmpeg/crowd_run_2160p50medium10000k.log"
Command line:
Tools/ffmpeg/ffmpeg -benchmark -y -i Input/y4m/crowd_run_2160p50.y4m -c:v libx264 -preset medium -b:v 10000k -an Output/x264/encoded/crowd_run_2160p50medium10000k.mkv
ffmpeg version N-82227-gdb23fde Copyright (c) 2000-2016 the FFmpeg developers
  built with gcc 5.4.0 (Ubuntu 5.4.0-6ubuntu1~16.04.2) 20160609
  configuration: --prefix=/home/jaroslav/ffmpeg_build --pkg-config-flags=--static --extra-cflags=-I/home/jaroslav/ffmpeg_build/include --extra-ldflags=-L/home/jaroslav/ffmpeg_build/lib --bindir=/home/jaroslav/bin --enable-gpl --enable-libass --enable-libfdk-aac --enable-libfreetype --enable-libmp3lame --enable-libopus --enable-libtheora --enable-libvorbis --enable-libvpx --enable-libx264 --enable-libx265 --enable-nvenc --enable-libmfx --enable-libxvid --enable-libgsm --enable-libopencore-amrnb --enable-version3 --enable-nonfree
  libavutil      55. 35.100 / 55. 35.100
  libavcodec     57. 66.101 / 57. 66.101
  libavformat    57. 57.100 / 57. 57.100
  libavdevice    57.  2.100 / 57.  2.100
  libavfilter     6. 66.100 /  6. 66.100
  libswscale      4.  3.100 /  4.  3.100
  libswresample   2.  4.100 /  2.  4.100
  libpostproc    54.  2.100 / 54.  2.100
Input #0, yuv4mpegpipe, from 'Input/y4m/crowd_run_2160p50.y4m':
  Duration: 00:00:10.00, start: 0.000000, bitrate: 4976642 kb/s
    Stream #0:0: Video: rawvideo (I420 / 0x30323449), yuv420p(progressive), 3840x2160, SAR 1:1 DAR 16:9, 50 fps, 50 tbr, 50 tbn, 50 tbc
[libx264 @ 0x40671c0] using SAR=1/1
[libx264 @ 0x40671c0] using cpu capabilities: MMX2 SSE2Fast SSSE3 SSE4.2 AVX FMA3 AVX2 LZCNT BMI2
[libx264 @ 0x40671c0] profile High, level 5.2
[libx264 @ 0x40671c0] 264 - core 148 - H.264/MPEG-4 AVC codec - Copyleft 2003-2016 - http://www.videolan.org/x264.html - options: cabac=1 ref=3 deblock=1:0:0 analyse=0x3:0x113 me=hex subme=7 psy=1 psy_rd=1.00:0.00 mixed_ref=1 me_range=16 chroma_me=1 trellis=1 8x8dct=1 cqm=0 deadzone=21,11 fast_pskip=1 chroma_qp_offset=-2 threads=6 lookahead_threads=1 sliced_threads=0 nr=0 decimate=1 interlaced=0 bluray_compat=0 constrained_intra=0 bframes=3 b_pyramid=2 b_adapt=1 b_bias=0 direct=1 weightb=1 open_gop=0 weightp=2 keyint=250 keyint_min=25 scenecut=40 intra_refresh=0 rc_lookahead=40 rc=abr mbtree=1 bitrate=10000 ratetol=1.0 qcomp=0.60 qpmin=0 qpmax=69 qpstep=4 ip_ratio=1.40 aq=1:1.00
Output #0, matroska, to 'Output/x264/encoded/crowd_run_2160p50medium10000k.mkv':
  Metadata:
    encoder         : Lavf57.57.100
    Stream #0:0: Video: h264 (libx264) (H264 / 0x34363248), yuv420p, 3840x2160 [SAR 1:1 DAR 16:9], q=-1--1, 10000 kb/s, 50 fps, 1k tbn, 50 tbc
    Metadata:
      encoder         : Lavc57.66.101 libx264
    Side data:
      cpb: bitrate max/min/avg: 0/0/10000000 buffer size: 0 vbv_delay: -1
Stream mapping:
  Stream #0:0 -> #0:0 (rawvideo (native) -> h264 (libx264))
Press [q] to stop, [?] for help
frame=   19 fps=0.0 q=0.0 size=       0kB time=00:00:00.00 bitrate=N/A speed=   0x    frame=   28 fps= 25 q=0.0 size=       0kB time=00:00:00.00 bitrate=N/A speed=   0x    frame=   45 fps= 27 q=0.0 size=       0kB time=00:00:00.00 bitrate=N/A speed=   0x    frame=   47 fps= 12 q=0.0 size=       0kB time=00:00:00.00 bitrate=N/A speed=   0x    frame=   53 fps= 12 q=34.0 size=       1kB time=00:00:00.00 bitrate=5872.0kbits/s speed=0.000223x    frame=   57 fps= 11 q=37.0 size=       1kB time=00:00:00.08 bitrate=  72.5kbits/s speed=0.0158x    frame=   62 fps= 11 q=49.0 size=       1kB time=00:00:00.18 bitrate=  32.4kbits/s speed=0.0316x    frame=   70 fps= 11 q=50.0 size=       1kB time=00:00:00.34 bitrate=  17.2kbits/s speed=0.0531x    frame=   78 fps= 11 q=49.0 size=       1kB time=00:00:00.50 bitrate=  11.7kbits/s speed=0.0715x    frame=   84 fps= 11 q=49.0 size=       1kB time=00:00:00.62 bitrate=   9.5kbits/s speed=0.0825x    frame=   90 fps= 11 q=49.0 size=       1kB time=00:00:00.74 bitrate=   7.9kbits/s speed=0.0913x    frame=   98 fps= 11 q=48.0 size=       1kB time=00:00:00.90 bitrate=   6.5kbits/s speed=0.103x    frame=  105 fps= 11 q=48.0 size=       1kB time=00:00:01.04 bitrate=   5.6kbits/s speed=0.111x    frame=  113 fps= 11 q=48.0 size=       1kB time=00:00:01.20 bitrate=   4.9kbits/s speed=0.121x    frame=  118 fps= 11 q=48.0 size=       1kB time=00:00:01.30 bitrate=   4.5kbits/s speed=0.124x    frame=  126 fps= 11 q=47.0 size=       1kB time=00:00:01.46 bitrate=   4.0kbits/s speed=0.133x    frame=  130 fps= 11 q=47.0 size=       1kB time=00:00:01.54 bitrate=   3.8kbits/s speed=0.133x    frame=  137 fps= 11 q=47.0 size=       1kB time=00:00:01.68 bitrate=   3.5kbits/s speed=0.139x    frame=  145 fps= 11 q=47.0 size=       1kB time=00:00:01.84 bitrate=   3.2kbits/s speed=0.145x    frame=  151 fps= 11 q=47.0 size=       1kB time=00:00:01.96 bitrate=   3.0kbits/s speed=0.148x    frame=  157 fps= 11 q=47.0 size=       1kB time=00:00:02.08 bitrate=   2.8kbits/s speed=0.15x    frame=  164 fps= 11 q=47.0 size=       1kB time=00:00:02.22 bitrate=   2.6kbits/s speed=0.155x    frame=  169 fps= 11 q=47.0 size=       1kB time=00:00:02.32 bitrate=   2.5kbits/s speed=0.155x    frame=  177 fps= 11 q=47.0 size=       1kB time=00:00:02.48 bitrate=   2.4kbits/s speed=0.158x    frame=  185 fps= 11 q=47.0 size=       1kB time=00:00:02.64 bitrate=   2.2kbits/s speed=0.162x    frame=  192 fps= 11 q=47.0 size=       1kB time=00:00:02.78 bitrate=   2.1kbits/s speed=0.165x    frame=  198 fps= 11 q=46.0 size=       1kB time=00:00:02.90 bitrate=   2.0kbits/s speed=0.167x    frame=  204 fps= 11 q=46.0 size=       1kB time=00:00:03.02 bitrate=   1.9kbits/s speed=0.169x    frame=  210 fps= 11 q=46.0 size=       1kB time=00:00:03.14 bitrate=   1.9kbits/s speed=0.17x    frame=  216 fps= 11 q=46.0 size=       1kB time=00:00:03.26 bitrate=   1.8kbits/s speed=0.171x    frame=  221 fps= 11 q=46.0 size=       1kB time=00:00:03.36 bitrate=   1.7kbits/s speed=0.172x    frame=  226 fps= 11 q=46.0 size=       1kB time=00:00:03.46 bitrate=   1.7kbits/s speed=0.172x    frame=  233 fps= 11 q=46.0 size=       1kB time=00:00:03.60 bitrate=   1.6kbits/s speed=0.174x    frame=  240 fps= 11 q=46.0 size=       1kB time=00:00:03.74 bitrate=   1.6kbits/s speed=0.177x    frame=  245 fps= 11 q=46.0 size=       1kB time=00:00:03.84 bitrate=   1.5kbits/s speed=0.177x    frame=  250 fps= 11 q=46.0 size=    5142kB time=00:00:03.94 bitrate=10687.5kbits/s speed=0.177x    frame=  257 fps= 11 q=46.0 size=    5142kB time=00:00:04.08 bitrate=10320.8kbits/s speed=0.178x    frame=  262 fps= 11 q=46.0 size=    5142kB time=00:00:04.18 bitrate=10074.0kbits/s speed=0.179x    frame=  269 fps= 11 q=46.0 size=    5142kB time=00:00:04.32 bitrate=9747.6kbits/s speed=0.18x    frame=  275 fps= 11 q=46.0 size=    5142kB time=00:00:04.44 bitrate=9484.2kbits/s speed=0.181x    frame=  282 fps= 11 q=46.0 size=    5142kB time=00:00:04.58 bitrate=9194.3kbits/s speed=0.182x    frame=  287 fps= 11 q=46.0 size=    5142kB time=00:00:04.68 bitrate=8997.9kbits/s speed=0.182x    frame=  293 fps= 11 q=46.0 size=    5142kB time=00:00:04.80 bitrate=8773.0kbits/s speed=0.182x    frame=  296 fps= 11 q=43.0 size=    5142kB time=00:00:04.86 bitrate=8664.7kbits/s speed=0.178x    frame=  304 fps= 11 q=46.0 size=    6364kB time=00:00:05.02 bitrate=10383.8kbits/s speed=0.18x    frame=  311 fps= 11 q=46.0 size=    6364kB time=00:00:05.16 bitrate=10102.1kbits/s speed=0.181x    frame=  317 fps= 11 q=46.0 size=    6364kB time=00:00:05.28 bitrate=9872.6kbits/s speed=0.182x    frame=  323 fps= 11 q=46.0 size=    6364kB time=00:00:05.40 bitrate=9653.2kbits/s speed=0.183x    frame=  328 fps= 11 q=46.0 size=    6364kB time=00:00:05.50 bitrate=9477.8kbits/s speed=0.183x    frame=  335 fps= 11 q=46.0 size=    6364kB time=00:00:05.64 bitrate=9242.5kbits/s speed=0.183x    frame=  340 fps= 11 q=46.0 size=    6364kB time=00:00:05.74 bitrate=9081.5kbits/s speed=0.184x    frame=  347 fps= 11 q=46.0 size=    6364kB time=00:00:05.88 bitrate=8865.4kbits/s speed=0.185x    frame=  353 fps= 11 q=46.0 size=    6364kB time=00:00:06.00 bitrate=8688.1kbits/s speed=0.186x    frame=  360 fps= 11 q=46.0 size=    6364kB time=00:00:06.14 bitrate=8490.0kbits/s speed=0.186x    frame=  366 fps= 11 q=46.0 size=    6364kB time=00:00:06.26 bitrate=8327.3kbits/s speed=0.187x    frame=  371 fps= 11 q=46.0 size=    6364kB time=00:00:06.36 bitrate=8196.4kbits/s speed=0.187x    frame=  379 fps= 11 q=46.0 size=    6364kB time=00:00:06.52 bitrate=7995.3kbits/s speed=0.188x    frame=  384 fps= 11 q=46.0 size=    6364kB time=00:00:06.62 bitrate=7874.5kbits/s speed=0.188x    frame=  391 fps= 11 q=46.0 size=    6364kB time=00:00:06.76 bitrate=7711.5kbits/s speed=0.189x    frame=  397 fps= 11 q=46.0 size=    6364kB time=00:00:06.88 bitrate=7577.0kbits/s speed=0.189x    frame=  403 fps= 11 q=46.0 size=    6364kB time=00:00:07.00 bitrate=7447.1kbits/s speed=0.19x    frame=  409 fps= 11 q=46.0 size=    6364kB time=00:00:07.12 bitrate=7321.6kbits/s speed=0.19x    frame=  414 fps= 11 q=46.0 size=    6364kB time=00:00:07.22 bitrate=7220.2kbits/s speed=0.19x    frame=  419 fps= 11 q=46.0 size=    6364kB time=00:00:07.32 bitrate=7121.6kbits/s speed=0.19x    frame=  427 fps= 11 q=46.0 size=    6364kB time=00:00:07.48 bitrate=6969.3kbits/s speed=0.191x    frame=  434 fps= 11 q=46.0 size=    6364kB time=00:00:07.62 bitrate=6841.2kbits/s speed=0.192x    frame=  440 fps= 11 q=46.0 size=    6364kB time=00:00:07.74 bitrate=6735.2kbits/s speed=0.193x    frame=  444 fps= 11 q=46.0 size=    6364kB time=00:00:07.82 bitrate=6666.3kbits/s speed=0.192x    frame=  451 fps= 11 q=46.0 size=    6364kB time=00:00:07.96 bitrate=6549.1kbits/s speed=0.193x    frame=  456 fps= 11 q=46.0 size=    6364kB time=00:00:08.06 bitrate=6467.8kbits/s speed=0.193x    frame=  463 fps= 11 q=46.0 size=    6364kB time=00:00:08.20 bitrate=6357.4kbits/s speed=0.193x    frame=  470 fps= 11 q=46.0 size=    6364kB time=00:00:08.34 bitrate=6250.7kbits/s speed=0.194x    frame=  476 fps= 11 q=46.0 size=    6364kB time=00:00:08.46 bitrate=6162.1kbits/s speed=0.194x    frame=  483 fps= 11 q=46.0 size=    6364kB time=00:00:08.60 bitrate=6061.8kbits/s speed=0.193x    frame=  489 fps= 11 q=46.0 size=    6364kB time=00:00:08.72 bitrate=5978.3kbits/s speed=0.193x    frame=  495 fps= 11 q=46.0 size=    6364kB time=00:00:08.84 bitrate=5897.2kbits/s speed=0.193x    frame=  500 fps= 10 q=-1.0 Lsize=   12290kB time=00:00:09.94 bitrate=10128.0kbits/s speed= 0.2x    
video:12286kB audio:0kB subtitle:0kB other streams:0kB global headers:0kB muxing overhead: 0.036659%
bench: utime=173.736s
bench: maxrss=1881728kB
[libx264 @ 0x40671c0] frame I:2     Avg QP:35.60  size:338017
[libx264 @ 0x40671c0] frame P:126   Avg QP:45.15  size: 46343
[libx264 @ 0x40671c0] frame B:372   Avg QP:47.29  size: 16303
[libx264 @ 0x40671c0] consecutive B-frames:  0.8%  0.0%  0.0% 99.2%
[libx264 @ 0x40671c0] mb I  I16..4: 19.6% 68.6% 11.8%
[libx264 @ 0x40671c0] mb P  I16..4:  2.5%  5.6%  0.0%  P16..4: 30.8%  3.7%  2.3%  0.0%  0.0%    skip:55.0%
[libx264 @ 0x40671c0] mb B  I16..4:  0.0%  0.1%  0.0%  B16..8: 35.6%  0.8%  0.0%  direct: 0.2%  skip:63.3%  L0:43.6% L1:56.2% BI: 0.3%
[libx264 @ 0x40671c0] final ratefactor: 38.08
[libx264 @ 0x40671c0] 8x8 transform intra:68.3% inter:95.8%
[libx264 @ 0x40671c0] coded y,uvDC,uvAC intra: 26.4% 56.2% 18.4% inter: 3.2% 5.3% 0.1%
[libx264 @ 0x40671c0] i16 v,h,dc,p: 39% 24%  8% 28%
[libx264 @ 0x40671c0] i8 v,h,dc,ddl,ddr,vr,hd,vl,hu: 18% 10% 32%  7%  6%  8%  7%  7%  5%
[libx264 @ 0x40671c0] i4 v,h,dc,ddl,ddr,vr,hd,vl,hu: 21% 16% 13%  9%  9%  9%  8%  7%  7%
[libx264 @ 0x40671c0] i8c dc,h,v,p: 79%  7% 12%  2%
[libx264 @ 0x40671c0] Weighted P-Frames: Y:1.6% UV:0.8%
[libx264 @ 0x40671c0] ref P L0: 70.7%  6.0% 17.0%  6.2%  0.1%
[libx264 @ 0x40671c0] ref B L0: 94.7%  4.3%  1.0%
[libx264 @ 0x40671c0] ref B L1: 98.8%  1.2%
[libx264 @ 0x40671c0] kb/s:10064.02
